[Header]
FileType HTR
DataType HTRS
FileVersion 1
NumSegments 64
NumFrames 4
DataFrameRate 30
EulerRotationOrder ZYX
CalibrationUnits mm
RotationUnits Degrees
GlobalAxisofGravity Y
BoneLengthAxis Y
ScaleFactor 1.0
[SegmentNames&Hierarchy]
Hips	GLOBAL
Spine	Hips
Spine1	Spine
Spine2	Spine1
Neck	Spine2
Head	Neck
LeftEye	Head
RightEye	Head
LeftShoulder	Spine2
LeftArm	LeftShoulder
LeftForeArm	LeftArm
LeftHand	LeftForeArm
LeftHandThumb1	LeftHand
LeftHandThumb2	LeftHandThumb1
LeftHandThumb3	LeftHandThumb2
LeftHandThumb4	LeftHandThumb3
LeftHandIndex1	LeftHand
LeftHandIndex2	LeftHandIndex1
LeftHandIndex3	LeftHandIndex2
LeftHandIndex4	LeftHandIndex3
LeftHandMiddle1	LeftHand
LeftHandMiddle2	LeftHandMiddle1
LeftHandMiddle3	LeftHandMiddle2
LeftHandMiddle4	LeftHandMiddle3
LeftHandRing1	LeftHand
LeftHandRing2	LeftHandRing1
LeftHandRing3	LeftHandRing2
LeftHandRing4	LeftHandRing3
LeftHandPinky1	LeftHand
LeftHandPinky2	LeftHandPinky1
LeftHandPinky3	LeftHandPinky2
LeftHandPinky4	LeftHandPinky3
RightShoulder	Spine2
RightArm	RightShoulder
RightForeArm	RightArm
RightHand	RightForeArm
RightHandPinky1	RightHand
RightHandPinky2	RightHandPinky1
RightHandPinky3	RightHandPinky2
RightHandPinky4	RightHandPinky3
RightHandRing1	RightHand
RightHandRing2	RightHandRing1
RightHandRing3	RightHandRing2
RightHandRing4	RightHandRing3
RightHandMiddle1	RightHand
RightHandMiddle2	RightHandMiddle1
RightHandMiddle3	RightHandMiddle2
RightHandMiddle4	RightHandMiddle3
RightHandIndex1	RightHand
RightHandIndex2	RightHandIndex1
RightHandIndex3	RightHandIndex2
RightHandIndex4	RightHandIndex3
RightHandThumb1	RightHand
RightHandThumb2	RightHandThumb1
RightHandThumb3	RightHandThumb2
RightHandThumb4	RightHandThumb3
LeftUpLeg	Hips
LeftLeg	LeftUpLeg
LeftFoot	LeftLeg
LeftToeBase	LeftFoot
RightUpLeg	Hips
RightLeg	RightUpLeg
RightFoot	RightLeg
RightToeBase	RightFoot
[BasePosition]
Hips	0	0	0	0	0	0	1
Spine	0	0	0	0	0	0	1
Spine1	0	0	0	0	0	0	1
Spine2	0	0	0	0	0	0	1
Neck	0	0	0	0	0	0	1
Head	0	0	0	0	0	0	1
LeftEye	0	0	0	0	0	0	1
RightEye	0	0	0	0	0	0	1
LeftShoulder	0	0	0	0	0	0	1
LeftArm	0	0	0	0	0	0	1
LeftForeArm	0	0	0	0	0	0	1
LeftHand	0	0	0	0	0	0	1
LeftHandThumb1	0	0	0	0	0	0	1
LeftHandThumb2	0	0	0	0	0	0	1
LeftHandThumb3	0	0	0	0	0	0	1
LeftHandThumb4	0	0	0	0	0	0	1
LeftHandIndex1	0	0	0	0	0	0	1
LeftHandIndex2	0	0	0	0	0	0	1
LeftHandIndex3	0	0	0	0	0	0	1
LeftHandIndex4	0	0	0	0	0	0	1
LeftHandMiddle1	0	0	0	0	0	0	1
LeftHandMiddle2	0	0	0	0	0	0	1
LeftHandMiddle3	0	0	0	0	0	0	1
LeftHandMiddle4	0	0	0	0	0	0	1
LeftHandRing1	0	0	0	0	0	0	1
LeftHandRing2	0	0	0	0	0	0	1
LeftHandRing3	0	0	0	0	0	0	1
LeftHandRing4	0	0	0	0	0	0	1
LeftHandPinky1	0	0	0	0	0	0	1
LeftHandPinky2	0	0	0	0	0	0	1
LeftHandPinky3	0	0	0	0	0	0	1
LeftHandPinky4	0	0	0	0	0	0	1
RightShoulder	0	0	0	0	0	0	1
RightArm	0	0	0	0	0	0	1
RightForeArm	0	0	0	0	0	0	1
RightHand	0	0	0	0	0	0	1
RightHandPinky1	0	0	0	0	0	0	1
RightHandPinky2	0	0	0	0	0	0	1
RightHandPinky3	0	0	0	0	0	0	1
RightHandPinky4	0	0	0	0	0	0	1
RightHandRing1	0	0	0	0	0	0	1
RightHandRing2	0	0	0	0	0	0	1
RightHandRing3	0	0	0	0	0	0	1
RightHandRing4	0	0	0	0	0	0	1
RightHandMiddle1	0	0	0	0	0	0	1
RightHandMiddle2	0	0	0	0	0	0	1
RightHandMiddle3	0	0	0	0	0	0	1
RightHandMiddle4	0	0	0	0	0	0	1
RightHandIndex1	0	0	0	0	0	0	1
RightHandIndex2	0	0	0	0	0	0	1
RightHandIndex3	0	0	0	0	0	0	1
RightHandIndex4	0	0	0	0	0	0	1
RightHandThumb1	0	0	0	0	0	0	1
RightHandThumb2	0	0	0	0	0	0	1
RightHandThumb3	0	0	0	0	0	0	1
RightHandThumb4	0	0	0	0	0	0	1
LeftUpLeg	0	0	0	0	0	0	1
LeftLeg	0	0	0	0	0	0	1
LeftFoot	0	0	0	0	0	0	1
LeftToeBase	0	0	0	0	0	0	1
RightUpLeg	0	0	0	0	0	0	1
RightLeg	0	0	0	0	0	0	1
RightFoot	0	0	0	0	0	0	1
RightToeBase	0	0	0	0	0	0	1
[Hips]
79	-4.29997015	1033.435059	20.71170807	-4.072478771	-4.967172623	-3.045905828	1.0
80	-4.475593567	1033.417969	20.80461693	-4.087245464	-4.904453278	-3.041800261	1.0
81	-4.655557156	1033.427124	20.9177494	-4.095459938	-4.850235462	-3.038659811	1.0
82	-4.837981224	1033.436157	21.04808998	-4.103034496	-4.813694477	-3.035745382	1.0
[Spine]
79	0	101.8159943	1.315000057	3.788006306	1.866794705	3.024420977	1.0
80	0	101.8159943	1.315000057	3.785034657	1.869385958	3.026163578	1.0
81	0	101.8159943	1.315000057	3.779093027	1.872783542	3.026790857	1.0
82	0	101.8159943	1.315000057	3.772143602	1.88191998	3.026485443	1.0
[Spine1]
79	0	100.8349991	-10.00800037	1.264978409	0.5147950649	1.632623911	1.0
80	0	100.8349991	-10.00800037	1.263141274	0.5160107017	1.63318944	1.0
81	0	100.8349991	-10.00800037	1.260199904	0.5174747705	1.633368969	1.0
82	0	100.8349991	-10.00800037	1.256929278	0.5212936997	1.633511186	1.0
[Spine2]
79	0	91	-13.73399925	1.239872217	0.5376433134	1.634058833	1.0
80	0	91	-13.73399925	1.238039136	0.5388560891	1.634610534	1.0
81	0	91	-13.73399925	1.235097528	0.5403174758	1.634775996	1.0
82	0	91	-13.73399925	1.231818795	0.5441473722	1.63489151	1.0
[Neck]
79	0	166.7169952	-25.16200066	5.853353024	-0.27386567	0.3143906295	1.0
80	0	166.7169952	-25.16200066	5.851501942	-0.2754373252	0.3158428967	1.0
81	0	166.7169952	-25.16200066	5.848804474	-0.2778341174	0.3256677389	1.0
82	0	166.7169952	-25.16200066	5.845899582	-0.2817682326	0.3354806602	1.0
[Head]
79	0	96.17900085	16.84999847	-8.640650749	0.7475317717	-0.2646666467	1.0
80	0	96.17900085	16.84999847	-8.680109024	0.7439552546	-0.2685477436	1.0
81	0	96.17900085	16.84999847	-8.713036537	0.7463086843	-0.261877805	1.0
82	0	96.17900085	16.84999847	-8.726941109	0.7441010475	-0.2492123097	1.0
[LeftEye]
79	30.6760006	64.09500122	92.83599854	0	0	0	1.0
80	30.6760006	64.09500122	92.83599854	0	0	0	1.0
81	30.6760006	64.09500122	92.83599854	0	0	0	1.0
82	30.6760006	64.09500122	92.83599854	0	0	0	1.0
[RightEye]
79	-30.6760006	64.09500122	92.83499908	0	0	0	1.0
80	-30.6760006	64.09500122	92.83499908	0	0	0	1.0
81	-30.6760006	64.09500122	92.83499908	0	0	0	1.0
82	-30.6760006	64.09500122	92.83499908	0	0	0	1.0
[LeftShoulder]
79	45.70400238	109.4599991	-26.28000069	4.97906971	-16.85161591	-13.58148575	1.0
80	45.70400238	109.4599991	-26.28000069	4.977776051	-16.8488636	-13.5756216	1.0
81	45.70400238	109.4599991	-26.28000069	4.973329544	-16.8353653	-13.55698967	1.0
82	45.70400238	109.4599991	-26.28000069	4.968560219	-16.81598282	-13.5388937	1.0
[LeftArm]
79	105.923996	-5.24600029	-22.32099915	19.79919243	-3.702605724	-70.92221832	1.0
80	105.923996	-5.24600029	-22.32099915	19.79754257	-3.7161057	-70.9353714	1.0
81	105.923996	-5.24600029	-22.32099915	19.80296707	-3.727453947	-70.95842743	1.0
82	105.923996	-5.24600029	-22.32099915	19.80816269	-3.72874999	-70.97380829	1.0
[LeftForeArm]
79	278.414978	-0.0009999999311	0	-4.002651622e-06	-1.490547061	-0.0002035980579	1.0
80	278.414978	-0.0009999999311	0	-8.636015991e-06	-1.489415526	-0.0001830640831	1.0
81	278.414978	-0.0009999999311	0	-1.272245117e-05	-1.493571401	-0.0001982899557	1.0
82	278.414978	-0.0009999999311	0	-5.887039606e-06	-1.498408914	-0.000201099916	1.0
[LeftHand]
79	283.2879944	0	0	-32.94155884	-4.569658756	-4.112123489	1.0
80	283.2879944	0	0	-32.93017578	-4.571555138	-4.111908913	1.0
81	283.2879944	0	0	-32.91526794	-4.571707249	-4.121290207	1.0
82	283.2879944	0	0	-32.92938614	-4.571169853	-4.129797935	1.0
[LeftHandThumb1]
79	24.6609993	-15.75	26.8239994	-0.4889889657	2.201390743	4.818541527	1.0
80	24.6609993	-15.75	26.8239994	-0.4889889657	2.201390743	4.818541527	1.0
81	24.6609993	-15.75	26.8239994	-0.4889889657	2.201390743	4.818541527	1.0
82	24.6609993	-15.75	26.8239994	-0.4889889657	2.201390743	4.818541527	1.0
[LeftHandThumb2]
79	32.29800034	-18.64699936	18.64699936	19.88581276	19.96446037	23.26738167	1.0
80	32.29800034	-18.64699936	18.64699936	19.88581276	19.96446037	23.26738167	1.0
81	32.29800034	-18.64699936	18.64699936	19.88581276	19.96446037	23.26738167	1.0
82	32.29800034	-18.64699936	18.64699936	19.88581276	19.96446037	23.26738167	1.0
[LeftHandThumb3]
79	26.52600098	-15.31499958	15.31499958	-13.14535904	5.551738262	7.967928886	1.0
80	26.52600098	-15.31499958	15.31499958	-13.14535904	5.551738262	7.967928886	1.0
81	26.52600098	-15.31499958	15.31499958	-13.14535904	5.551738262	7.967928886	1.0
82	26.52600098	-15.31499958	15.31499958	-13.14535904	5.551738262	7.967928886	1.0
[LeftHandThumb4]
79	19.54599953	-11.28499985	11.28499985	0	0	0	1.0
80	19.54599953	-11.28499985	11.28499985	0	0	0	1.0
81	19.54599953	-11.28499985	11.28499985	0	0	0	1.0
82	19.54599953	-11.28499985	11.28499985	0	0	0	1.0
[LeftHandIndex1]
79	91.09299469	-5.170999527	22.60099792	0.1480516791	-0.9618676901	-7.594518185	1.0
80	91.09299469	-5.170999527	22.60099792	0.1480516791	-0.9618676901	-7.594518185	1.0
81	91.09299469	-5.170999527	22.60099792	0.1480516791	-0.9618676901	-7.594518185	1.0
82	91.09299469	-5.170999527	22.60099792	0.1480516791	-0.9618676901	-7.594518185	1.0
[LeftHandIndex2]
79	36.76399994	0	0	-0.2667043209	1.745171905	-17.37646866	1.0
80	36.76399994	0	0	-0.2667043209	1.745171905	-17.37646866	1.0
81	36.76399994	0	0	-0.2667043209	1.745171905	-17.37646866	1.0
82	36.76399994	0	0	-0.2667043209	1.745171905	-17.37646866	1.0
[LeftHandIndex3]
79	28.83100128	0	0	-0.05742863193	0.817338407	-8.038370132	1.0
80	28.83100128	0	0	-0.05742863193	0.817338407	-8.038370132	1.0
81	28.83100128	0	0	-0.05742863193	0.817338407	-8.038370132	1.0
82	28.83100128	0	0	-0.05742863193	0.817338407	-8.038370132	1.0
[LeftHandIndex4]
79	23.92700005	0	0	0	0	0	1.0
80	23.92700005	0	0	0	0	0	1.0
81	23.92700005	0	0	0	0	0	1.0
82	23.92700005	0	0	0	0	0	1.0
[LeftHandMiddle1]
79	95.33399963	0	0	-0.7942916155	2.538622379	-15.71737862	1.0
80	95.33399963	0	0	-0.7942916155	2.538622379	-15.71737862	1.0
81	95.33399963	0	0	-0.7942916155	2.538622379	-15.71737862	1.0
82	95.33399963	0	0	-0.7942916155	2.538622379	-15.71737862	1.0
[LeftHandMiddle2]
79	36.98199844	0	0	-0.267610997	1.748071074	-17.40625954	1.0
80	36.98199844	0	0	-0.267610997	1.748071074	-17.40625954	1.0
81	36.98199844	0	0	-0.267610997	1.748071074	-17.40625954	1.0
82	36.98199844	0	0	-0.267610997	1.748071074	-17.40625954	1.0
[LeftHandMiddle3]
79	29.50900078	0	0	-0.2992140949	1.84580946	-18.41413307	1.0
80	29.50900078	0	0	-0.2992140949	1.84580946	-18.41413307	1.0
81	29.50900078	0	0	-0.2992140949	1.84580946	-18.41413307	1.0
82	29.50900078	0	0	-0.2992140949	1.84580946	-18.41413307	1.0
[LeftHandMiddle4]
79	28.3390007	0	0	0	0	0	1.0
80	28.3390007	0	0	0	0	0	1.0
81	28.3390007	0	0	0	0	0	1.0
82	28.3390007	0	0	0	0	0	1.0
[LeftHandRing1]
79	91.04499817	-0.4390000105	-18.65100098	-1.184956431	3.436642885	-21.16632462	1.0
80	91.04499817	-0.4390000105	-18.65100098	-1.184956431	3.436642885	-21.16632462	1.0
81	91.04499817	-0.4390000105	-18.65100098	-1.184956431	3.436642885	-21.16632462	1.0
82	91.04499817	-0.4390000105	-18.65100098	-1.184956431	3.436642885	-21.16632462	1.0
[LeftHandRing2]
79	31.54000092	0	0	-0.3849357069	2.085560799	-20.91281319	1.0
80	31.54000092	0	0	-0.3849357069	2.085560799	-20.91281319	1.0
81	31.54000092	0	0	-0.3849357069	2.085560799	-20.91281319	1.0
82	31.54000092	0	0	-0.3849357069	2.085560799	-20.91281319	1.0
[LeftHandRing3]
79	29.37700081	0	0	-0.2818065584	1.792707562	-17.86576271	1.0
80	29.37700081	0	0	-0.2818065584	1.792707562	-17.86576271	1.0
81	29.37700081	0	0	-0.2818065584	1.792707562	-17.86576271	1.0
82	29.37700081	0	0	-0.2818065584	1.792707562	-17.86576271	1.0
[LeftHandRing4]
79	26.47500038	0	0	0	0	0	1.0
80	26.47500038	0	0	0	0	0	1.0
81	26.47500038	0	0	0	0	0	1.0
82	26.47500038	0	0	0	0	0	1.0
[LeftHandPinky1]
79	80.77799988	-4.887000084	-38.06099701	-1.708467126	5.355370045	-27.1653862	1.0
80	80.77799988	-4.887000084	-38.06099701	-1.708467126	5.355370045	-27.1653862	1.0
81	80.77799988	-4.887000084	-38.06099701	-1.708467126	5.355370045	-27.1653862	1.0
82	80.77799988	-4.887000084	-38.06099701	-1.708467126	5.355370045	-27.1653862	1.0
[LeftHandPinky2]
79	36	0	0	-0.2676221728	1.748113751	-17.40663528	1.0
80	36	0	0	-0.2676221728	1.748113751	-17.40663528	1.0
81	36	0	0	-0.2676221728	1.748113751	-17.40663528	1.0
82	36	0	0	-0.2676221728	1.748113751	-17.40663528	1.0
[LeftHandPinky3]
79	21.14200211	0	0	-0.2408525199	1.660349369	-16.50663185	1.0
80	21.14200211	0	0	-0.2408525199	1.660349369	-16.50663185	1.0
81	21.14200211	0	0	-0.2408525199	1.660349369	-16.50663185	1.0
82	21.14200211	0	0	-0.2408525199	1.660349369	-16.50663185	1.0
[LeftHandPinky4]
79	19.75699997	0	0	0	0	0	1.0
80	19.75699997	0	0	0	0	0	1.0
81	19.75699997	0	0	0	0	0	1.0
82	19.75699997	0	0	0	0	0	1.0
[RightShoulder]
79	-45.70000076	109.4620056	-26.28000069	5.316344261	15.04935455	16.02493095	1.0
80	-45.70000076	109.4620056	-26.28000069	5.314766884	15.042696	16.01940918	1.0
81	-45.70000076	109.4620056	-26.28000069	5.314450264	15.04464626	16.01656532	1.0
82	-45.70000076	109.4620056	-26.28000069	5.314961433	15.05689526	16.01293373	1.0
[RightArm]
79	-105.9280014	-5.248000145	-22.32099915	30.12384987	1.713620782	62.37110901	1.0
80	-105.9280014	-5.248000145	-22.32099915	30.11542892	1.710048795	62.37341309	1.0
81	-105.9280014	-5.248000145	-22.32099915	30.10122108	1.70418787	62.37380981	1.0
82	-105.9280014	-5.248000145	-22.32099915	30.09620094	1.705307364	62.38293076	1.0
[RightForeArm]
79	-278.414978	0	0	-1.078780861e-05	6.709323883	-3.563153086e-06	1.0
80	-278.414978	0	0	-9.956255781e-06	6.723835468	-1.180921572e-05	1.0
81	-278.414978	0	0	-5.375808541e-06	6.730034351	-6.927588402e-06	1.0
82	-278.414978	0	0	-5.115889962e-06	6.708214283	-2.804378528e-05	1.0
[RightHand]
79	-283.2879944	0	0.0009999999311	-20.30096626	1.477972865	6.11453867	1.0
80	-283.2879944	0	0.0009999999311	-20.28829002	1.475249767	6.131591797	1.0
81	-283.2879944	0	0.0009999999311	-20.28029251	1.477567315	6.154792786	1.0
82	-283.2879944	0	0.0009999999311	-20.27737808	1.486557245	6.183238029	1.0
[RightHandPinky1]
79	-80.76699829	-4.885000229	-38.06000137	-1.507175922	-4.696118355	26.50587463	1.0
80	-80.76699829	-4.885000229	-38.06000137	-1.507175922	-4.696118355	26.50587463	1.0
81	-80.76699829	-4.885000229	-38.06000137	-1.507175922	-4.696118355	26.50587463	1.0
82	-80.76699829	-4.885000229	-38.06000137	-1.507175922	-4.696118355	26.50587463	1.0
[RightHandPinky2]
79	-36	0	0.0009999999311	-0.2127676606	-1.388874292	17.43785858	1.0
80	-36	0	0.0009999999311	-0.2127676606	-1.388874292	17.43785858	1.0
81	-36	0	0.0009999999311	-0.2127676606	-1.388874292	17.43785858	1.0
82	-36	0	0.0009999999311	-0.2127676606	-1.388874292	17.43785858	1.0
[RightHandPinky3]
79	-21.14200211	0	0	-0.1919144988	-1.32059598	16.53641129	1.0
80	-21.14200211	0	0	-0.1919144988	-1.32059598	16.53641129	1.0
81	-21.14200211	0	0	-0.1919144988	-1.32059598	16.53641129	1.0
82	-21.14200211	0	0	-0.1919144988	-1.32059598	16.53641129	1.0
[RightHandPinky4]
79	-19.75699997	0	0	0	0	0	1.0
80	-19.75699997	0	0	0	0	0	1.0
81	-19.75699997	0	0	0	0	0	1.0
82	-19.75699997	0	0	0	0	0	1.0
[RightHandRing1]
79	-91.03599548	-0.4390000105	-18.65100098	-1.045235753	-2.883111477	20.47788429	1.0
80	-91.03599548	-0.4390000105	-18.65100098	-1.045235753	-2.883111477	20.47788429	1.0
81	-91.03599548	-0.4390000105	-18.65100098	-1.045235753	-2.883111477	20.47788429	1.0
82	-91.03599548	-0.4390000105	-18.65100098	-1.045235753	-2.883111477	20.47788429	1.0
[RightHandRing2]
79	-31.54000092	0	0	-0.3066971898	-1.658752441	20.94926834	1.0
80	-31.54000092	0	0	-0.3066971898	-1.658752441	20.94926834	1.0
81	-31.54000092	0	0	-0.3066971898	-1.658752441	20.94926834	1.0
82	-31.54000092	0	0	-0.3066971898	-1.658752441	20.94926834	1.0
[RightHandRing3]
79	-29.37700081	0	0	-0.2245407403	-1.425854325	17.89771652	1.0
80	-29.37700081	0	0	-0.2245407403	-1.425854325	17.89771652	1.0
81	-29.37700081	0	0	-0.2245407403	-1.425854325	17.89771652	1.0
82	-29.37700081	0	0	-0.2245407403	-1.425854325	17.89771652	1.0
[RightHandRing4]
79	-26.47500038	0	0	0	0	0	1.0
80	-26.47500038	0	0	0	0	0	1.0
81	-26.47500038	0	0	0	0	0	1.0
82	-26.47500038	0	0	0	0	0	1.0
[RightHandMiddle1]
79	-95.32500458	0	0	-0.7017197609	-2.087752104	15.0152874	1.0
80	-95.32500458	0	0	-0.7017197609	-2.087752104	15.0152874	1.0
81	-95.32500458	0	0	-0.7017197609	-2.087752104	15.0152874	1.0
82	-95.32500458	0	0	-0.7017197609	-2.087752104	15.0152874	1.0
[RightHandMiddle2]
79	-36.98199844	0	0	-0.213228479	-1.390354872	17.43750381	1.0
80	-36.98199844	0	0	-0.213228479	-1.390354872	17.43750381	1.0
81	-36.98199844	0	0	-0.213228479	-1.390354872	17.43750381	1.0
82	-36.98199844	0	0	-0.213228479	-1.390354872	17.43750381	1.0
[RightHandMiddle3]
79	-29.50900078	0	0	-0.2384106964	-1.470119596	18.44692802	1.0
80	-29.50900078	0	0	-0.2384106964	-1.470119596	18.44692802	1.0
81	-29.50900078	0	0	-0.2384106964	-1.470119596	18.44692802	1.0
82	-29.50900078	0	0	-0.2384106964	-1.470119596	18.44692802	1.0
[RightHandMiddle4]
79	-28.3390007	0	0.0009999999311	0	0	0	1.0
80	-28.3390007	0	0.0009999999311	0	0	0	1.0
81	-28.3390007	0	0.0009999999311	0	0	0	1.0
82	-28.3390007	0	0.0009999999311	0	0	0	1.0
[RightHandIndex1]
79	-91.08300018	-5.167999744	22.60099792	0.1884763837	1.25192976	6.825599194	1.0
80	-91.08300018	-5.167999744	22.60099792	0.1884763837	1.25192976	6.825599194	1.0
81	-91.08300018	-5.167999744	22.60099792	0.1884763837	1.25192976	6.825599194	1.0
82	-91.08300018	-5.167999744	22.60099792	0.1884763837	1.25192976	6.825599194	1.0
[RightHandIndex2]
79	-36.76399994	0	0	-0.2125098109	-1.388050556	17.40767097	1.0
80	-36.76399994	0	0	-0.2125098109	-1.388050556	17.40767097	1.0
81	-36.76399994	0	0	-0.2125098109	-1.388050556	17.40767097	1.0
82	-36.76399994	0	0	-0.2125098109	-1.388050556	17.40767097	1.0
[RightHandIndex3]
79	-28.83100128	0	0	-0.04576345533	-0.650116384	8.053516388	1.0
80	-28.83100128	0	0	-0.04576345533	-0.650116384	8.053516388	1.0
81	-28.83100128	0	0	-0.04576345533	-0.650116384	8.053516388	1.0
82	-28.83100128	0	0	-0.04576345533	-0.650116384	8.053516388	1.0
[RightHandIndex4]
79	-23.92700005	0	0	0	0	0	1.0
80	-23.92700005	0	0	0	0	0	1.0
81	-23.92700005	0	0	0	0	0	1.0
82	-23.92700005	0	0	0	0	0	1.0
[RightHandThumb1]
79	-24.64799881	-15.72700024	26.82600021	-1.658462524	-0.2891407609	-4.221328735	1.0
80	-24.64799881	-15.72700024	26.82600021	-1.658462524	-0.2891407609	-4.221328735	1.0
81	-24.64799881	-15.72700024	26.82600021	-1.658462524	-0.2891407609	-4.221328735	1.0
82	-24.64799881	-15.72700024	26.82600021	-1.658462524	-0.2891407609	-4.221328735	1.0
[RightHandThumb2]
79	-32.29800034	-18.64699936	18.64699936	22.25259209	-23.88967514	-24.282444	1.0
80	-32.29800034	-18.64699936	18.64699936	22.25259209	-23.88967514	-24.282444	1.0
81	-32.29800034	-18.64699936	18.64699936	22.25259209	-23.88967514	-24.282444	1.0
82	-32.29800034	-18.64699936	18.64699936	22.25259209	-23.88967514	-24.282444	1.0
[RightHandThumb3]
79	-26.52600098	-15.31399918	15.31399918	-14.47830296	-6.743862152	-11.36570263	1.0
80	-26.52600098	-15.31399918	15.31399918	-14.47830296	-6.743862152	-11.36570263	1.0
81	-26.52600098	-15.31399918	15.31399918	-14.47830296	-6.743862152	-11.36570263	1.0
82	-26.52600098	-15.31399918	15.31399918	-14.47830296	-6.743862152	-11.36570263	1.0
[RightHandThumb4]
79	-19.54599953	-11.28499985	11.28499985	0	0	0	1.0
80	-19.54599953	-11.28499985	11.28499985	0	0	0	1.0
81	-19.54599953	-11.28499985	11.28499985	0	0	0	1.0
82	-19.54599953	-11.28499985	11.28499985	0	0	0	1.0
[LeftUpLeg]
79	82.07800293	-67.51699829	-15.99599934	-7.432458878	16.50666428	7.873779774	1.0
80	82.07800293	-67.51699829	-15.99599934	-7.426035881	16.51104164	7.879210949	1.0
81	82.07800293	-67.51699829	-15.99599934	-7.411815643	16.51151848	7.883616924	1.0
82	82.07800293	-67.51699829	-15.99599934	-7.392781734	16.50483704	7.886433601	1.0
[LeftLeg]
79	0	-443.7049866	2.845999956	12.42675877	0.2420845926	4.367938995	1.0
80	0	-443.7049866	2.845999956	12.42484665	0.1756735146	4.34961462	1.0
81	0	-443.7049866	2.845999956	12.40066242	0.117764011	4.336383343	1.0
82	0	-443.7049866	2.845999956	12.37561989	0.08596401662	4.337238789	1.0
[LeftFoot]
79	0	-444.2789917	-29.8219986	0.9285990596	0.6804870963	-7.28131628	1.0
80	0	-444.2789917	-29.8219986	0.9315021634	0.6810035706	-7.284744263	1.0
81	0	-444.2789917	-29.8219986	0.9419227839	0.6818602681	-7.28797245	1.0
82	0	-444.2789917	-29.8219986	0.9505396485	0.6828560233	-7.294213772	1.0
[LeftToeBase]
79	0	-87.28699493	107.1060028	-4.924782276	-9.441411748e-06	7.47117042e-07	1.0
80	0	-87.28699493	107.1060028	-4.923760414	-1.593646971e-06	1.396528262e-07	1.0
81	0	-87.28699493	107.1060028	-4.916745663	-9.910138942e-06	7.434270799e-08	1.0
82	0	-87.28699493	107.1060028	-4.910316467	4.148019741e-07	2.22489416e-06	1.0
[RightUpLeg]
79	-82.07800293	-67.51699829	-15.99599934	0.6434300542	-10.6451931	3.230201006	1.0
80	-82.07800293	-67.51699829	-15.99599934	0.6605671048	-10.65026379	3.234467745	1.0
81	-82.07800293	-67.51699829	-15.99599934	0.688067019	-10.65924835	3.238118887	1.0
82	-82.07800293	-67.51699829	-15.99599934	0.7151787877	-10.67066383	3.239073038	1.0
[RightLeg]
79	0	-443.7049866	2.861999989	9.017528534	-9.164207458	-4.822412014	1.0
80	0	-443.7049866	2.861999989	9.034695625	-9.164788246	-4.823758125	1.0
81	0	-443.7049866	2.861999989	9.019281387	-9.168913841	-4.816399097	1.0
82	0	-443.7049866	2.861999989	9.005031586	-9.173313141	-4.806495667	1.0
[RightFoot]
79	0	-444.2770081	-29.83799934	-4.862435341	-1.707100391	3.367796659	1.0
80	0	-444.2770081	-29.83799934	-4.888900757	-1.762874365	3.365869999	1.0
81	0	-444.2770081	-29.83799934	-4.899495125	-1.80547905	3.358356476	1.0
82	0	-444.2770081	-29.83799934	-4.910018921	-1.825477123	3.348703384	1.0
[RightToeBase]
79	0	-87.28699493	107.1060028	-7.24426651	7.625453236e-06	-2.636183808e-06	1.0
80	0	-87.28699493	107.1060028	-7.254475117	-5.04946513e-07	-1.015283829e-06	1.0
81	0	-87.28699493	107.1060028	-7.260805607	1.06396883e-05	-1.550648108e-06	1.0
82	0	-87.28699493	107.1060028	-7.268992424	-9.144799265e-07	4.000395393e-07	1.0
[EndOfFile]
